<?xml version="1.0" encoding="UTF-8"?>
<!DOCTYPE svg PUBLIC "-//W3C//DTD SVG 1.1//EN" "http://www.w3.org/Graphics/SVG/1.1/DTD/svg11.dtd">
<!-- Creator: CorelDRAW 2018 (64-Bit) -->
<svg xmlns="http://www.w3.org/2000/svg" xml:space="preserve" width="213px" height="120px" version="1.1" style="shape-rendering:geometricPrecision; text-rendering:geometricPrecision; image-rendering:optimizeQuality; fill-rule:evenodd; clip-rule:evenodd"
viewBox="0 0 213 119.9"
 xmlns:xlink="http://www.w3.org/1999/xlink">
 <defs>
  <style type="text/css">
   <![CDATA[
    .fil1 {fill:#4346b1}
    .fil2 {fill:#4346b1;fill-rule:nonzero}
    .fil0 {fill:#4346b1;fill-opacity:0.501961}
   ]]>
  </style>
 </defs>
 <g id="Слой_x0020_1">
  <metadata id="CorelCorpID_0Corel-Layer"/>
  <polygon class="fil0" points="98.69,9.67 122.05,73.76 123.13,73.76 146.49,9.67 134.04,9.67 116.37,58.17 122.05,73.76 109.6,73.76 86.24,9.67 "/>
  <polygon class="fil1" points="78.56,9.67 101.92,73.76 103,73.76 126.36,9.67 113.91,9.67 96.24,58.17 101.92,73.76 89.47,73.76 66.11,9.67 "/>
  <polygon class="fil2" points="17.81,101.12 24,85.88 29.87,85.88 20.11,109.82 15.52,109.82 5.75,85.88 11.63,85.88 "/>
  <path id="1" class="fil2" d="M50.79 97.71c0,-2.13 -0.7,-3.95 -2.09,-5.46 -1.39,-1.51 -3.09,-2.26 -5.12,-2.26 -2.03,0 -3.74,0.75 -5.13,2.26 -1.39,1.51 -2.08,3.33 -2.08,5.46 0,2.14 0.69,3.95 2.08,5.45 1.39,1.5 3.1,2.24 5.13,2.24 2.03,0 3.73,-0.74 5.12,-2.24 1.39,-1.5 2.09,-3.31 2.09,-5.45zm1.84 8.81c-2.45,2.36 -5.48,3.54 -9.07,3.54 -3.59,0 -6.61,-1.18 -9.07,-3.54 -2.45,-2.37 -3.68,-5.31 -3.68,-8.82 0,-3.52 1.23,-6.46 3.68,-8.82 2.46,-2.37 5.48,-3.55 9.07,-3.55 3.59,0 6.62,1.18 9.07,3.55 2.46,2.36 3.68,5.3 3.68,8.82 0,3.51 -1.22,6.45 -3.68,8.82z"/>
  <path id="2" class="fil2" d="M80.6 93.83c0,3.83 -1.54,6.31 -4.62,7.43l6.15 8.56 -6.67 0 -5.39 -7.64 -3.75 0 0 7.64 -5.42 0 0 -23.94 9.21 0c3.78,0 6.47,0.63 8.08,1.88 1.61,1.26 2.41,3.28 2.41,6.07zm-10.32 3.73c1.86,0 3.12,-0.3 3.79,-0.89 0.67,-0.59 1.01,-1.54 1.01,-2.83 0,-1.29 -0.35,-2.17 -1.04,-2.65 -0.7,-0.48 -1.92,-0.72 -3.65,-0.72l-4.07 0 0 7.09 3.96 0z"/>
  <path id="3" class="fil2" d="M86.16 85.88l5.42 0 0 9.83 9.18 -9.83 6.7 0 -9.66 10.58c0.84,1.15 2.38,3.27 4.63,6.39 2.24,3.12 3.92,5.44 5.03,6.97l-6.32 0 -7.12 -9.45 -2.44 2.67 0 6.78 -5.42 0 0 -23.94z"/>
  <polygon id="4" class="fil2" points="127.51,85.88 127.51,90.57 116.26,90.57 116.26,95.74 126.96,95.74 126.96,100.44 116.26,100.44 116.26,109.82 110.83,109.82 110.83,85.88 "/>
  <path id="5" class="fil2" d="M150.69 97.71c0,-2.13 -0.69,-3.95 -2.08,-5.46 -1.39,-1.51 -3.1,-2.26 -5.13,-2.26 -2.03,0 -3.73,0.75 -5.12,2.26 -1.39,1.51 -2.09,3.33 -2.09,5.46 0,2.14 0.7,3.95 2.09,5.45 1.39,1.5 3.09,2.24 5.12,2.24 2.03,0 3.74,-0.74 5.13,-2.24 1.39,-1.5 2.08,-3.31 2.08,-5.45zm1.84 8.81c-2.45,2.36 -5.48,3.54 -9.07,3.54 -3.59,0 -6.61,-1.18 -9.07,-3.54 -2.45,-2.37 -3.68,-5.31 -3.68,-8.82 0,-3.52 1.23,-6.46 3.68,-8.82 2.46,-2.37 5.48,-3.55 9.07,-3.55 3.59,0 6.62,1.18 9.07,3.55 2.46,2.36 3.69,5.3 3.69,8.82 0,3.51 -1.23,6.45 -3.69,8.82z"/>
  <path id="6" class="fil2" d="M180.51 93.83c0,3.83 -1.54,6.31 -4.63,7.43l6.15 8.56 -6.67 0 -5.38 -7.64 -3.76 0 0 7.64 -5.42 0 0 -23.94 9.21 0c3.78,0 6.47,0.63 8.08,1.88 1.61,1.26 2.42,3.28 2.42,6.07zm-10.32 3.73c1.85,0 3.11,-0.3 3.78,-0.89 0.67,-0.59 1.01,-1.54 1.01,-2.83 0,-1.29 -0.35,-2.17 -1.04,-2.65 -0.7,-0.48 -1.91,-0.72 -3.65,-0.72l-4.07 0 0 7.09 3.97 0z"/>
  <path id="7" class="fil2" d="M186.07 85.88l5.42 0 0 9.83 9.17 -9.83 6.71 0 -9.66 10.58c0.83,1.15 2.37,3.27 4.62,6.39 2.24,3.12 3.92,5.44 5.04,6.97l-6.33 0 -7.12 -9.45 -2.43 2.67 0 6.78 -5.42 0 0 -23.94z"/>
 </g>
</svg>
