<?xml version="1.0" encoding="UTF-8"?>
<!DOCTYPE svg PUBLIC "-//W3C//DTD SVG 1.1//EN" "http://www.w3.org/Graphics/SVG/1.1/DTD/svg11.dtd">
<!-- Creator: CorelDRAW 2018 (64-Bit) -->
<svg xmlns="http://www.w3.org/2000/svg" xml:space="preserve" width="374px" height="90px" version="1.1" style="shape-rendering:geometricPrecision; text-rendering:geometricPrecision; image-rendering:optimizeQuality; fill-rule:evenodd; clip-rule:evenodd"
viewBox="0 0 374 90"
 xmlns:xlink="http://www.w3.org/1999/xlink">
 <defs>
  <style type="text/css">
   <![CDATA[
    .fil1 {fill:white}
    .fil2 {fill:white;fill-rule:nonzero}
    .fil0 {fill:white;fill-opacity:0.501961}
   ]]>
  </style>
 </defs>
 <g id="Слой_x0020_1">
  <metadata id="CorelCorpID_0Corel-Layer"/>
  <polygon class="fil0" points="182.84,12.12 207.72,80.4 208.88,80.4 233.76,12.12 220.5,12.12 201.67,63.79 207.72,80.4 194.45,80.4 169.57,12.12 "/>
  <polygon class="fil1" points="161.39,12.12 186.27,80.4 187.43,80.4 212.31,12.12 199.05,12.12 180.22,63.79 186.27,80.4 173,80.4 148.12,12.12 "/>
  <polygon class="fil2" points="22.15,49.86 30.92,28.25 39.25,28.25 25.4,62.19 18.9,62.19 5.05,28.25 13.38,28.25 "/>
  <path id="1" class="fil2" d="M68.9 45.02c0,-3.02 -0.98,-5.6 -2.95,-7.74 -1.97,-2.14 -4.39,-3.21 -7.27,-3.21 -2.87,0 -5.29,1.07 -7.27,3.21 -1.97,2.14 -2.95,4.72 -2.95,7.74 0,3.03 0.98,5.61 2.95,7.73 1.98,2.12 4.4,3.18 7.27,3.18 2.88,0 5.3,-1.06 7.27,-3.18 1.97,-2.12 2.95,-4.7 2.95,-7.73zm2.62 12.49c-3.49,3.35 -7.77,5.02 -12.86,5.02 -5.09,0 -9.38,-1.67 -12.86,-5.02 -3.48,-3.36 -5.22,-7.52 -5.22,-12.51 0,-4.99 1.74,-9.15 5.22,-12.51 3.48,-3.35 7.77,-5.02 12.86,-5.02 5.09,0 9.37,1.67 12.86,5.02 3.48,3.36 5.22,7.52 5.22,12.51 0,4.99 -1.74,9.15 -5.22,12.51z"/>
  <path id="2" class="fil2" d="M111.18 39.51c0,5.44 -2.19,8.95 -6.56,10.54l8.72 12.14 -9.45 0 -7.64 -10.83 -5.32 0 0 10.83 -7.69 0 0 -33.94 13.06 0c5.35,0 9.17,0.89 11.45,2.67 2.29,1.78 3.43,4.64 3.43,8.59zm-14.64 5.3c2.63,0 4.42,-0.43 5.37,-1.27 0.96,-0.84 1.43,-2.17 1.43,-4 0,-1.83 -0.49,-3.09 -1.47,-3.77 -0.99,-0.68 -2.71,-1.02 -5.18,-1.02l-5.76 0 0 10.06 5.61 0z"/>
  <path id="3" class="fil2" d="M119.06 28.25l7.69 0 0 13.93 13 -13.93 9.51 0 -13.7 15c1.19,1.62 3.37,4.64 6.56,9.06 3.18,4.42 5.56,7.71 7.14,9.88l-8.97 0 -10.1 -13.4 -3.44 3.79 0 9.61 -7.69 0 0 -33.94z"/>
  <polygon id="4" class="fil2" points="255.73,28.25 255.73,34.9 239.77,34.9 239.77,42.23 254.94,42.23 254.94,48.89 239.77,48.89 239.77,62.19 232.08,62.19 232.08,28.25 "/>
  <path id="5" class="fil2" d="M288.59 45.02c0,-3.02 -0.98,-5.6 -2.96,-7.74 -1.97,-2.14 -4.39,-3.21 -7.26,-3.21 -2.88,0 -5.3,1.07 -7.27,3.21 -1.97,2.14 -2.96,4.72 -2.96,7.74 0,3.03 0.99,5.61 2.96,7.73 1.97,2.12 4.39,3.18 7.27,3.18 2.87,0 5.29,-1.06 7.26,-3.18 1.98,-2.12 2.96,-4.7 2.96,-7.73zm2.61 12.49c-3.48,3.35 -7.77,5.02 -12.86,5.02 -5.09,0 -9.37,-1.67 -12.86,-5.02 -3.48,-3.36 -5.22,-7.52 -5.22,-12.51 0,-4.99 1.74,-9.15 5.22,-12.51 3.49,-3.35 7.77,-5.02 12.86,-5.02 5.09,0 9.38,1.67 12.86,5.02 3.48,3.36 5.22,7.52 5.22,12.51 0,4.99 -1.74,9.15 -5.22,12.51z"/>
  <path id="6" class="fil2" d="M330.86 39.51c0,5.44 -2.18,8.95 -6.55,10.54l8.72 12.14 -9.46 0 -7.64 -10.83 -5.32 0 0 10.83 -7.68 0 0 -33.94 13.05 0c5.36,0 9.18,0.89 11.46,2.67 2.28,1.78 3.42,4.64 3.42,8.59zm-14.63 5.3c2.63,0 4.42,-0.43 5.37,-1.27 0.95,-0.84 1.43,-2.17 1.43,-4 0,-1.83 -0.49,-3.09 -1.48,-3.77 -0.98,-0.68 -2.71,-1.02 -5.17,-1.02l-5.77 0 0 10.06 5.62 0z"/>
  <path id="7" class="fil2" d="M338.75 28.25l7.68 0 0 13.93 13.01 -13.93 9.51 0 -13.7 15c1.18,1.62 3.37,4.64 6.55,9.06 3.19,4.42 5.57,7.71 7.15,9.88l-8.97 0 -10.1 -13.4 -3.45 3.79 0 9.61 -7.68 0 0 -33.94z"/>
 </g>
</svg>
